<svg class="svg-icon" style="width: 1em;height: 1em;vertical-align: middle;fill:#a4abaf;overflow: hidden;" viewBox="0 0 1024 1024" version="1.1" xmlns="http://www.w3.org/2000/svg"><path d="M111.76 412.98L864.43 99.34c8.17-3.4 17.56-1.91 24.27 3.86a23.407 23.407 0 0 1 7.45 23.41L708.66 876.59a23.409 23.409 0 0 1-15.45 16.56c-7.65 2.5-16.05 0.88-22.23-4.27L508.19 753.24c-9.31-7.75-22.99-7.11-31.54 1.46l-83.5 83.44a23.407 23.407 0 0 1-25.45 5.03 23.393 23.393 0 0 1-14.46-21.53V645.28c0-6.21 2.46-12.16 6.85-16.56l339.56-339.56-400.88 300.71c-8.68 6.5-20.7 6.19-29.02-0.76L105.79 452.53a23.405 23.405 0 0 1-8.14-21.45 23.422 23.422 0 0 1 14.11-18.1z m0 0"  /></svg>